<svg id="Alcoolicas" xmlns="http://www.w3.org/2000/svg" width="45.991" height="50.323" viewBox="0 0 45.991 50.323">
  <path id="Caminho_1" data-name="Caminho 1" d="M3283.906-111.316h-8.572v-4.147a1.1,1.1,0,0,0-.085-.423,5.663,5.663,0,0,0,.085-.959,5.18,5.18,0,0,0-4.984-5.346,4.666,4.666,0,0,0-1.128.139c-1.347-3.78-5.292-6.406-9.879-6.406a10.489,10.489,0,0,0-9.318,5.163,6.163,6.163,0,0,0-3.078-.831,6.819,6.819,0,0,0-6.544,7.051,7.59,7.59,0,0,0,.124,1.362,1.107,1.107,0,0,0-.031.251v34.839a2.491,2.491,0,0,0,2.488,2.488h29.862a2.491,2.491,0,0,0,2.488-2.488v-2.488h8.572a2.491,2.491,0,0,0,2.489-2.488v-23.226A2.491,2.491,0,0,0,3283.906-111.316Zm-36.958-10.6a4.07,4.07,0,0,1,2.775,1.13,1.106,1.106,0,0,0,1.022.265,1.107,1.107,0,0,0,.779-.712c1.019-2.953,4.235-5.015,7.82-5.015,4.028,0,7.414,2.477,8.052,5.889a1.106,1.106,0,0,0,.634.806,1.106,1.106,0,0,0,1.023-.062,2.483,2.483,0,0,1,1.3-.366,2.973,2.973,0,0,1,2.772,3.134,2.973,2.973,0,0,1-2.772,3.134,2.706,2.706,0,0,1-2.364-1.507,1.106,1.106,0,0,0-.883-.576,1.109,1.109,0,0,0-.965.425,8.574,8.574,0,0,1-6.8,3.134,8.653,8.653,0,0,1-6.653-2.959,1.105,1.105,0,0,0-.852-.4,1.111,1.111,0,0,0-.151.01,1.107,1.107,0,0,0-.861.648,4.291,4.291,0,0,1-3.88,2.7,4.611,4.611,0,0,1-4.332-4.839A4.612,4.612,0,0,1,3246.947-121.915Zm26.175,41.29a.277.277,0,0,1-.276.276h-29.862a.277.277,0,0,1-.276-.276v-31.087a6.246,6.246,0,0,0,4.24,1.686,6.412,6.412,0,0,0,5.112-2.66,11.119,11.119,0,0,0,7.285,2.66,11.018,11.018,0,0,0,7.59-2.935,4.818,4.818,0,0,0,3.417,1.46,4.722,4.722,0,0,0,2.772-.906Zm11.06-4.977a.277.277,0,0,1-.277.276h-8.572V-109.1h8.572a.277.277,0,0,1,.277.277Z" transform="translate(-3240.403 128.459)" fill="#fff"/>
  <path id="Caminho_2" data-name="Caminho 2" d="M3264.843-47.459a1.106,1.106,0,0,0-1.106,1.106v20.046a1.106,1.106,0,0,0,1.106,1.106,1.106,1.106,0,0,0,1.106-1.106V-46.353A1.106,1.106,0,0,0,3264.843-47.459Z" transform="translate(-3257.285 69.855)" fill="#fff"/>
  <path id="Caminho_3" data-name="Caminho 3" d="M3300.677-47.459a1.106,1.106,0,0,0-1.106,1.106v20.046a1.106,1.106,0,0,0,1.106,1.106,1.106,1.106,0,0,0,1.106-1.106V-46.353A1.106,1.106,0,0,0,3300.677-47.459Z" transform="translate(-3283.211 69.855)" fill="#fff"/>
  <path id="Caminho_4" data-name="Caminho 4" d="M3337.843-47.459a1.106,1.106,0,0,0-1.106,1.106v20.046a1.106,1.106,0,0,0,1.106,1.106,1.106,1.106,0,0,0,1.106-1.106V-46.353A1.106,1.106,0,0,0,3337.843-47.459Z" transform="translate(-3310.101 69.855)" fill="#fff"/>
</svg>
