<svg xmlns="http://www.w3.org/2000/svg" width="31.283" height="26.278" viewBox="0 0 31.283 26.278">
  <path id="União_1" data-name="União 1" d="M-853.162-451.273a1.876,1.876,0,0,1,0-2.654l8.057-8.058h-23a1.877,1.877,0,0,1-1.877-1.877,1.877,1.877,0,0,1,1.877-1.876h23l-8.058-8.058a1.876,1.876,0,0,1,0-2.654,1.876,1.876,0,0,1,2.654,0l11.253,11.253a1.894,1.894,0,0,1,.152.169v0l.013.016,0,0,.012.016,0,0,.011.015,0,0,.011.015,0,0,.01.014,0,0,.012.017h0a1.867,1.867,0,0,1,.322,1.052,1.869,1.869,0,0,1-.215.873h0l0,.008a1.872,1.872,0,0,1-.253.364h0l-.014.016h0l-.014.015,0,0-.012.013-.005.005-.011.011-.016.016-11.262,11.262a1.872,1.872,0,0,1-1.328.55A1.87,1.87,0,0,1-853.162-451.273Z" transform="translate(869.98 477)" fill="rgba(51,53,51,0.29)"/>
</svg>
