<svg xmlns="http://www.w3.org/2000/svg" width="39.431" height="57.412" viewBox="0 0 39.431 57.412">
  <g id="Bebidas" transform="translate(0)">
    <path id="Caminho_7" data-name="Caminho 7" d="M2621.041-10.922a5,5,0,0,0-4.869,5.114,5,5,0,0,0,4.869,5.114,5,5,0,0,0,4.869-5.114A5,5,0,0,0,2621.041-10.922Zm0,7.965a2.74,2.74,0,0,1-2.606-2.851,2.74,2.74,0,0,1,2.606-2.852,2.74,2.74,0,0,1,2.607,2.852A2.74,2.74,0,0,1,2621.041-2.957Z" transform="translate(-2609.241 42.196)" fill="#fff"/>
    <path id="Caminho_8" data-name="Caminho 8" d="M2631.094-118.961a2.548,2.548,0,0,0-2.545-2.545h-34.34a2.548,2.548,0,0,0-2.545,2.545v.069l6.4,52.332a2.549,2.549,0,0,0,2.544,2.467h21.21a2.548,2.548,0,0,0,2.544-2.462l3.024-23.5c.01-.033.022-.065.031-.1a1.119,1.119,0,0,0,.031-.387l3.64-28.278Zm-8.988,52.178-.009.145a.283.283,0,0,1-.283.283H2600.6a.283.283,0,0,1-.283-.283v-.069l-3.865-31.621c2.332-.217,11.74-.665,13.776,5.918a10.119,10.119,0,0,0,9.7,7.509l.163,0a8.3,8.3,0,0,0,4.515-1.361Zm3.058-23.755a5.179,5.179,0,0,1-5.106,3.373,7.9,7.9,0,0,1-7.665-5.914c-2.585-8.359-13.538-7.773-16.212-7.5L2593.929-119a.284.284,0,0,1,.28-.24h34.34a.283.283,0,0,1,.28.238Z" transform="translate(-2591.663 121.506)" fill="#fff"/>
    <path id="Caminho_9" data-name="Caminho 9" d="M2655.073,37.823a1.131,1.131,0,0,0-1.131,1.131v.424a1.131,1.131,0,0,0,2.262,0v-.424A1.131,1.131,0,0,0,2655.073,37.823Z" transform="translate(-2636.329 7.236)" fill="#fff"/>
    <path id="Caminho_10" data-name="Caminho 10" d="M2666.2,45.573a1.132,1.132,0,0,0-1.131,1.131v.424a1.131,1.131,0,0,0,2.263,0V46.7A1.132,1.132,0,0,0,2666.2,45.573Z" transform="translate(-2644.308 1.678)" fill="#fff"/>
  </g>
</svg>
