<svg id="Cafeteria" xmlns="http://www.w3.org/2000/svg" width="55.475" height="55.586" viewBox="0 0 55.475 55.586">
  <path id="Caminho_11" data-name="Caminho 11" d="M2953.083-414.154c-1.329-3.221-5.694-4.533-10.031-3.159.024-.307.045-.615.061-.925a1.127,1.127,0,0,0-.308-.833,1.126,1.126,0,0,0-.816-.35h-42.864a1.125,1.125,0,0,0-.816.35,1.127,1.127,0,0,0-.308.833c.766,14.908,10.674,26.586,22.557,26.586,7.75,0,14.66-4.969,18.741-12.562.181.081.364.161.556.229a8.974,8.974,0,0,0,2.987.487,11.675,11.675,0,0,0,4.421-.907C2951.9-406.319,2954.512-410.692,2953.083-414.154Zm-32.526,20.25c-10.374,0-19.085-10.127-20.226-23.267h40.452C2939.642-404.031,2930.931-393.9,2920.558-393.9Zm25.846-12.582a8.3,8.3,0,0,1-5.8.377c-.109-.038-.211-.084-.314-.129a33.113,33.113,0,0,0,2.48-8.574l.168-.068c3.432-1.416,7.125-.69,8.063,1.584S2949.835-407.9,2946.4-406.486Z" transform="translate(-2898 439.217)" fill="#fff"/>
  <path id="Caminho_12" data-name="Caminho 12" d="M2945.008-319.755H2909.9a3.874,3.874,0,0,0-3.87,3.87,3.874,3.874,0,0,0,3.87,3.87h35.106a3.874,3.874,0,0,0,3.87-3.87A3.874,3.874,0,0,0,2945.008-319.755Zm0,5.488H2909.9a1.62,1.62,0,0,1-1.618-1.618,1.62,1.62,0,0,1,1.618-1.618h35.106a1.62,1.62,0,0,1,1.618,1.618A1.62,1.62,0,0,1,2945.008-314.267Z" transform="translate(-2903.771 367.601)" fill="#fff"/>
  <path id="Caminho_13" data-name="Caminho 13" d="M2926.548-465.375c-1.611,1.189-2.268,2.451-1.951,3.751.677,2.779,5.521,3.581,5.726,3.613a1.136,1.136,0,0,0,.179.014,1.126,1.126,0,0,0,1.11-.949,1.126,1.126,0,0,0-.935-1.289c-1.831-.291-3.723-1.226-3.893-1.923-.06-.243.2-.741,1.1-1.407,1.53-1.129,2.228-2.357,2.076-3.65-.254-2.162-2.853-3.327-3.148-3.452a1.126,1.126,0,0,0-1.477.6,1.126,1.126,0,0,0,.6,1.476c.588.25,1.717.988,1.793,1.643C2927.774-466.538,2927.345-465.963,2926.548-465.375Z" transform="translate(-2917.056 476.103)" fill="#fff"/>
  <path id="Caminho_14" data-name="Caminho 14" d="M2966.389-476.159c.84,2.7,3.974,4.111,5.514,4.48a1.133,1.133,0,0,0,.264.032,1.127,1.127,0,0,0,1.094-.863,1.126,1.126,0,0,0-.832-1.357c-1.332-.32-3.42-1.449-3.89-2.96-.3-.959.1-2.056,1.181-3.261a6.261,6.261,0,0,0,1.881-5.069,6.933,6.933,0,0,0-2.955-4.418,1.123,1.123,0,0,0-1.55.337,1.128,1.128,0,0,0,.33,1.556,4.687,4.687,0,0,1,1.946,2.84,4.154,4.154,0,0,1-1.327,3.25C2965.991-479.306,2966.011-477.376,2966.389-476.159Z" transform="translate(-2946.999 489.755)" fill="#fff"/>
  <path id="Caminho_15" data-name="Caminho 15" d="M3008.526-467.508c-2.009,1.582-2.147,3.024-1.91,3.956.585,2.3,3.985,3.453,5.7,3.744a1.115,1.115,0,0,0,.189.016,1.127,1.127,0,0,0,1.109-.938,1.126,1.126,0,0,0-.922-1.3c-1.661-.282-3.681-1.231-3.9-2.08-.1-.4.308-.99,1.121-1.631,1.52-1.2,2.208-2.485,2.045-3.83-.271-2.232-2.831-3.454-3.121-3.586a1.127,1.127,0,0,0-1.491.56,1.126,1.126,0,0,0,.561,1.49c.529.24,1.722,1.028,1.816,1.807C3009.807-468.662,3009.118-467.974,3008.526-467.508Z" transform="translate(-2975.984 477.899)" fill="#fff"/>
</svg>
