<svg xmlns="http://www.w3.org/2000/svg" width="29.748" height="29.748" viewBox="0 0 29.748 29.748">
  <path id="Caminho_25" data-name="Caminho 25" d="M469.676,174.875l7.529-7.53a1.855,1.855,0,0,0,0-2.623l-4.178-4.178a1.855,1.855,0,0,0-2.623,0l-7.53,7.53-7.53-7.53a1.855,1.855,0,0,0-2.623,0l-4.178,4.178a1.855,1.855,0,0,0,0,2.623l7.529,7.53-7.529,7.53a1.855,1.855,0,0,0,0,2.623l4.178,4.178a1.855,1.855,0,0,0,2.623,0l7.53-7.529,7.53,7.529a1.855,1.855,0,0,0,2.623,0l4.178-4.178a1.855,1.855,0,0,0,0-2.623Z" transform="translate(-448.001 -160.001)" fill="#fff"/>
</svg>
