<svg xmlns="http://www.w3.org/2000/svg" width="36.177" height="57.412" viewBox="0 0 36.177 57.412">
  <g id="comidas" transform="translate(0)">
    <path id="Caminho_20" data-name="Caminho 20" d="M2928.015-152.4c-4.127,0-7.485,4.531-7.485,10.1,0,4.265,1.935,7.931,4.738,9.407a4.372,4.372,0,0,0-.137,1.12l-1.157,34.222c0,.011,0,.023,0,.034,0,1.536.627,2.529,1.6,2.529h4.51c.97,0,1.6-.993,1.6-2.529,0-.012,0-.024,0-.036l-1.231-34.221a4.576,4.576,0,0,0-.09-.923c3.021-1.323,5.146-5.134,5.146-9.6C2935.5-147.874,2932.142-152.4,2928.015-152.4Zm1.576,55.371h-3.534a2.6,2.6,0,0,1-.043-.471l1.157-34.22c0-.011.02-.4.044-.522,0,0,1-.009,1.136-.041.028.13.052.552.052.564l1.231,34.219A2.637,2.637,0,0,1,2929.591-97.034Zm-1.09-37.245a1.016,1.016,0,0,0-.487.2,1.015,1.015,0,0,0-.486-.2c-2.78-.373-4.957-3.9-4.957-8.025,0-4.444,2.442-8.059,5.443-8.059s5.444,3.615,5.444,8.059C2933.459-138.177,2931.281-134.652,2928.5-134.279Z" transform="translate(-2920.53 152.405)" fill="#fff"/>
    <g id="Grupo_6" data-name="Grupo 6" transform="translate(18.316 1.333)">
      <path id="Caminho_21" data-name="Caminho 21" d="M3003.5-91.186h-4.51c-.969,0-1.6-.993-1.6-2.528,0-.011,0-.023,0-.035l1.158-34.238c0-.15-.038-.193-.058-.214a1.464,1.464,0,0,0-.872-.239h-.041a5.3,5.3,0,0,1-5.268-5.33v-8.081c0-2.944,1.823-5.135,4.433-5.327a1.02,1.02,0,0,1,.811.311,1.021,1.021,0,0,1,.278.824,7.665,7.665,0,0,0-.05.868v8.007c0,2.512.371,3.138.471,3.262h.133l-.261-10.592c0-1.541,1.793-2.683,2.955-2.683a3,3,0,0,1,2.84,2.657v9.853a6.28,6.28,0,0,0,.424-2.393v-8.007a7.592,7.592,0,0,0-.051-.879,1.021,1.021,0,0,1,.252-.8,1.02,1.02,0,0,1,.762-.342h0a4.9,4.9,0,0,1,4.862,5.238v8.081a5.306,5.306,0,0,1-5.229,5.33c-.315.027-1.052.2-1.081.488l1.229,34.2q0,.018,0,.037C3005.092-92.178,3004.466-91.186,3003.5-91.186Zm-4.022-2.041h3.534a2.591,2.591,0,0,0,.043-.47l-1.23-34.219c0-.017,0-.035,0-.052.025-1.606,1.585-2.427,3.025-2.511l.059,0a3.262,3.262,0,0,0,3.226-3.289v-8.081a3.079,3.079,0,0,0-1.744-3v7.788c0,3.017-1.335,5.291-3.1,5.291-.08,0-.622-.121-.622-.121a1.02,1.02,0,0,1-.782-.992v-11.638c0-.185-.536-.594-.807-.616a1.478,1.478,0,0,0-.9.621l.287,11.608a1.022,1.022,0,0,1-.29.738,1.021,1.021,0,0,1-.731.308h-1.226c-2.466,0-2.466-3.716-2.466-5.3v-7.625a3.37,3.37,0,0,0-1.39,2.943v8.081a3.262,3.262,0,0,0,3.214,3.289h.053a3.346,3.346,0,0,1,2.333.856,2.288,2.288,0,0,1,.636,1.7L2999.43-93.7A2.6,2.6,0,0,0,2999.474-93.227Z" transform="translate(-2992.31 147.181)" fill="#fff"/>
    </g>
  </g>
</svg>
