<svg xmlns="http://www.w3.org/2000/svg" width="19.169" height="17.036" viewBox="0 0 19.169 17.036">
  <g id="edit" transform="translate(0 -0.1)">
    <path id="Caminho_27" data-name="Caminho 27" d="M13.4,2.866l3,3a.325.325,0,0,1,0,.459L9.132,13.6l-3.088.343a.647.647,0,0,1-.716-.716l.343-3.088,7.268-7.268a.325.325,0,0,1,.459,0ZM18.79,2.1,17.166.479a1.3,1.3,0,0,0-1.837,0L14.151,1.658a.325.325,0,0,0,0,.459l3,3a.325.325,0,0,0,.459,0L18.79,3.941a1.3,1.3,0,0,0,0-1.837Zm-6.01,9.515v3.388H2.13V4.357H9.778a.409.409,0,0,0,.283-.116l1.331-1.331a.4.4,0,0,0-.283-.682H1.6A1.6,1.6,0,0,0,0,3.824V15.539a1.6,1.6,0,0,0,1.6,1.6H13.312a1.6,1.6,0,0,0,1.6-1.6V10.287A.4.4,0,0,0,14.227,10L12.9,11.335A.409.409,0,0,0,12.78,11.618Z" transform="translate(0 0)" fill="#fff"/>
  </g>
</svg>
