<svg xmlns="http://www.w3.org/2000/svg" width="224.892" height="54.744" viewBox="0 0 224.892 54.744">
  <g id="logo" transform="translate(793.627 -198.427)">
    <path id="texto" d="M20.458-33.959v5.8H9.974v4.61h7.732v5.539H9.974v10.26H2.688V-33.959ZM36.108-7.49a13.608,13.608,0,0,1-6.766-1.729,12.882,12.882,0,0,1-4.889-4.8,13.422,13.422,0,0,1-1.8-6.933,13.422,13.422,0,0,1,1.8-6.933,12.746,12.746,0,0,1,4.889-4.777,13.724,13.724,0,0,1,6.766-1.71,13.694,13.694,0,0,1,6.784,1.71,12.65,12.65,0,0,1,4.851,4.777,13.531,13.531,0,0,1,1.784,6.933,13.531,13.531,0,0,1-1.784,6.933,12.747,12.747,0,0,1-4.87,4.8A13.608,13.608,0,0,1,36.108-7.49Zm0-6.766a5.591,5.591,0,0,0,4.405-1.822,7.067,7.067,0,0,0,1.617-4.87,7.108,7.108,0,0,0-1.617-4.926,5.619,5.619,0,0,0-4.405-1.8,5.606,5.606,0,0,0-4.424,1.8,7.161,7.161,0,0,0-1.6,4.926,7.1,7.1,0,0,0,1.6,4.889A5.606,5.606,0,0,0,36.108-14.256ZM65.365-7.49A13.608,13.608,0,0,1,58.6-9.219a12.882,12.882,0,0,1-4.889-4.8,13.422,13.422,0,0,1-1.8-6.933,13.422,13.422,0,0,1,1.8-6.933A12.746,12.746,0,0,1,58.6-32.658a13.724,13.724,0,0,1,6.766-1.71,13.694,13.694,0,0,1,6.784,1.71A12.65,12.65,0,0,1,77-27.881a13.531,13.531,0,0,1,1.784,6.933A13.531,13.531,0,0,1,77-14.015a12.747,12.747,0,0,1-4.87,4.8A13.608,13.608,0,0,1,65.365-7.49Zm0-6.766a5.591,5.591,0,0,0,4.405-1.822,7.067,7.067,0,0,0,1.617-4.87,7.108,7.108,0,0,0-1.617-4.926,5.619,5.619,0,0,0-4.405-1.8,5.606,5.606,0,0,0-4.424,1.8,7.161,7.161,0,0,0-1.6,4.926,7.1,7.1,0,0,0,1.6,4.889A5.606,5.606,0,0,0,65.365-14.256Zm27.063-19.7A15.149,15.149,0,0,1,99.659-32.3a11.622,11.622,0,0,1,4.777,4.628,13.636,13.636,0,0,1,1.673,6.8,13.442,13.442,0,0,1-1.691,6.766,11.99,11.99,0,0,1-4.8,4.665,14.8,14.8,0,0,1-7.193,1.691H82.057V-33.959Zm-.558,19.777a6.95,6.95,0,0,0,5.019-1.747,6.529,6.529,0,0,0,1.822-4.944,6.642,6.642,0,0,0-1.822-5,6.906,6.906,0,0,0-5.019-1.766H89.343v13.457Zm32.6-17.138a6.965,6.965,0,0,1,2.231,5.39,6.994,6.994,0,0,1-2.212,5.39q-2.212,2.045-6.561,2.045h-5.242V-7.751h-2.6V-33.4h7.844Q122.243-33.4,124.473-31.32ZM112.689-20.613h5.242q6.134,0,6.134-5.335t-6.134-5.335h-5.242Zm37.435,7.918a10.731,10.731,0,0,0,2.974-7.881,10.679,10.679,0,0,0-2.937-7.844,10.01,10.01,0,0,0-7.435-2.974,10.071,10.071,0,0,0-7.454,2.974,10.641,10.641,0,0,0-2.955,7.844,10.7,10.7,0,0,0,2.955,7.863,10.016,10.016,0,0,0,7.435,2.993A9.987,9.987,0,0,0,150.124-12.695Zm-16.692,1.524a12.68,12.68,0,0,1-3.755-9.405,12.587,12.587,0,0,1,3.773-9.387,12.762,12.762,0,0,1,9.294-3.7,12.7,12.7,0,0,1,9.275,3.7,12.619,12.619,0,0,1,3.755,9.387,12.619,12.619,0,0,1-3.755,9.387,12.7,12.7,0,0,1-9.275,3.7A12.859,12.859,0,0,1,133.432-11.171Zm28.439-15.465a3.779,3.779,0,0,0,.8,2.491,4.738,4.738,0,0,0,2.063,1.431,21.371,21.371,0,0,0,2.788.8q1.524.335,3.048.743a14,14,0,0,1,2.788,1.059,5.121,5.121,0,0,1,2.063,1.989,6.352,6.352,0,0,1,.8,3.309,7.028,7.028,0,0,1-2.193,5.13,8.113,8.113,0,0,1-6,2.193,10.363,10.363,0,0,1-6.19-1.71,5.391,5.391,0,0,1-2.379-4.61h2.751a4.2,4.2,0,0,0,1.524,2.955,6.2,6.2,0,0,0,4.108,1.171,6.379,6.379,0,0,0,4.349-1.413,4.477,4.477,0,0,0,1.617-3.513,3.627,3.627,0,0,0-1.487-3.16,9.092,9.092,0,0,0-3.587-1.468q-2.1-.409-4.2-.948a7.4,7.4,0,0,1-3.587-2.1,6.33,6.33,0,0,1-1.487-4.535,6.232,6.232,0,0,1,2.212-4.907,8.55,8.55,0,0,1,5.836-1.933,8.866,8.866,0,0,1,5.706,1.673,6.908,6.908,0,0,1,2.528,4.461H172.8a3.989,3.989,0,0,0-1.561-2.732,5.878,5.878,0,0,0-3.866-1.171A6.149,6.149,0,0,0,163.4-30.2,4.312,4.312,0,0,0,161.871-26.636Z" transform="translate(-744.955 259.286)" fill="#202020"/>
    <path id="simbolo" d="M1915.179,1322.542h0a2.288,2.288,0,0,1,2.232,2.8c-2.653,11.5-13.039,13.347-21.2,13.347-9.127,0-18.469-8.7-18.469-22.227,0-11.436,2.738-20.885,5.208-24.482.59-.644,1.209-1.611,2.6-1.4s1.529,1.422,1.181,2.659-2.051,8.9-2.051,11.874c0,.93.21,1.884.949,1.922s.823-1.148,1.091-2.316,3.687-15.712,7.23-19.866a2.99,2.99,0,0,1,2.594-.859,2.211,2.211,0,0,1,1.486,2.7c-.429,1.215-4.51,11.023-4.832,15.158-.08.859-.148,1.544.363,1.785s1.14-1.02,1.611-2.2,8.388-13.947,14.59-14.964c1.475-.215,2.281-.243,2.9.724s-.128,2.46-1.067,3.132a47.364,47.364,0,0,0-11.776,14.747c-.5,1.02-.191,1.355.036,1.6s2.444-.4,3.221-.458c.7-.048,12.862-.8,14.714,10.427a2.289,2.289,0,0,1-2.259,2.66h-.364a2.284,2.284,0,0,1-1.981-1.146,9.61,9.61,0,0,0-7.806-4.822c-2.506,0-14.318.2-14.318,1.566s8.466,1.888,9.54,2.066,1.933.805,1.879,1.342-.788.644-1.243.751c-4.134.751-10.568.019-10.568,1.862s6.434,1.11,10.568,1.862c.455.107,1.19.215,1.243.752s-.805,1.162-1.879,1.342-9.54.7-9.54,2.066,11.812,1.566,14.318,1.566a9.6,9.6,0,0,0,7.806-4.822A2.284,2.284,0,0,1,1915.179,1322.542Z" transform="translate(-2671.374 -1085.515)" fill="#ffc301"/>
  </g>
</svg>
