<svg id="plus" xmlns="http://www.w3.org/2000/svg" width="21.75" height="21.75" viewBox="0 0 21.75 21.75">
  <path id="Caminho_23" data-name="Caminho 23" d="M21.75,44.73V41.02a1.162,1.162,0,0,0-1.165-1.165h-6.69v-6.69A1.162,1.162,0,0,0,12.73,32H9.02a1.162,1.162,0,0,0-1.165,1.165v6.69H1.165A1.162,1.162,0,0,0,0,41.02V44.73a1.162,1.162,0,0,0,1.165,1.165h6.69v6.69A1.162,1.162,0,0,0,9.02,53.75H12.73a1.162,1.162,0,0,0,1.165-1.165v-6.69h6.69A1.162,1.162,0,0,0,21.75,44.73Z" transform="translate(0 -32)" fill="#fff"/>
</svg>
