<svg xmlns="http://www.w3.org/2000/svg" width="48.16" height="34.309" viewBox="0 0 48.16 34.309">
  <g id="Sandes" transform="translate(0)">
    <path id="Caminho_16" data-name="Caminho 16" d="M3321.294-416.065a3.737,3.737,0,0,0,1.538-2.911,4,4,0,0,0-2.24-3.389,4.018,4.018,0,0,0,2.28-3.411,3.558,3.558,0,0,0-1.06-2.478.954.954,0,0,0,.379-.193,5.73,5.73,0,0,0,2.354-4.33c0-2.78-2.624-5.311-7.388-7.128a48.505,48.505,0,0,0-16.691-2.645,48.514,48.514,0,0,0-16.692,2.645c-4.765,1.817-7.388,4.348-7.388,7.128a5.731,5.731,0,0,0,2.355,4.33.955.955,0,0,0,.442.211,3.549,3.549,0,0,0-1.043,2.46,4,4,0,0,0,2.24,3.389,4.017,4.017,0,0,0-2.28,3.411,3.7,3.7,0,0,0,1.452,2.842,4.14,4.14,0,0,0-2.529,3.748,4.283,4.283,0,0,0,4.4,4.146h37.851a4.283,4.283,0,0,0,4.4-4.146A4.128,4.128,0,0,0,3321.294-416.065Zm-39.048-.778,2.181-3.054,1.131,3.364h-1.32A6.489,6.489,0,0,1,3282.247-416.843Zm24.977-11.376-6.708,4.67-6.476-4.67h13.185Zm10.957,6.971-.81,2.752c-.112-.276-.228-.56-.344-.844-.345-.843-.635-1.54-.867-2.08h.532A6.561,6.561,0,0,1,3318.18-421.248Zm-6.2,3.057-1.392-3.229h2.584c-.21.545-.475,1.255-.789,2.115C3312.25-418.928,3312.113-418.55,3311.983-418.19Zm-10.005-3.229-1.725,3.5-1.417-3.5Zm-16.043,0h3.477l-2.26,3.618Zm5.055,1.085,1.671,3.8h-4.044Zm1.613-1.085h3.288l-1.722,3.56Zm4.735,1.4,1.41,3.484h-3.095Zm6.073.021,1.34,3.463H3301.7Zm1.5-1.422h2.759l-1.467,3.337Zm4.216,1.44,1.485,3.446h-3Zm5.556-.019c.4.964.909,2.2,1.415,3.465h-2.677C3313.871-417.793,3314.321-419.031,3314.684-420Zm4.219,3.077,1.05-3.569a1.956,1.956,0,0,1,.966,1.514C3320.918-418.136,3320.092-417.365,3318.9-416.922Zm-2.171-6.411h-13.177l7.019-4.886h6.158c2.251,0,4.227,1.141,4.227,2.443S3318.983-423.333,3316.731-423.333Zm-38.433-9.444c0-1.9,2.244-3.848,6.157-5.34a46.569,46.569,0,0,1,16.009-2.519,46.574,46.574,0,0,1,16.01,2.519c3.913,1.492,6.157,3.438,6.157,5.34a3.718,3.718,0,0,1-1.424,2.645h-41.484A3.72,3.72,0,0,1,3278.3-432.777Zm5.98,4.558h6.489l6.775,4.886h-13.264c-2.251,0-4.226-1.142-4.226-2.443S3282.027-428.219,3284.279-428.219Zm-1.188,6.9-2.513,3.519a1.689,1.689,0,0,1-.564-1.178C3280.013-420.05,3281.357-421.013,3283.09-421.318Zm36.181,11.163H3281.42a2.371,2.371,0,0,1-2.484-2.233,2.371,2.371,0,0,1,2.484-2.233h37.851a2.372,2.372,0,0,1,2.484,2.233A2.371,2.371,0,0,1,3319.271-410.155Z" transform="translate(-3276.385 442.55)" fill="#fff"/>
    <path id="Caminho_17" data-name="Caminho 17" d="M3322.173-414.984a.957.957,0,0,0,.957-.957v-.3a.957.957,0,0,0-.957-.957.957.957,0,0,0-.957.957v.3A.957.957,0,0,0,3322.173-414.984Z" transform="translate(-3310.492 423.262)" fill="#fff"/>
    <path id="Caminho_18" data-name="Caminho 18" d="M3330.923-421.782a.957.957,0,0,0,.957-.957v-.3a.957.957,0,0,0-.957-.957.957.957,0,0,0-.957.957v.3A.957.957,0,0,0,3330.923-421.782Z" transform="translate(-3317.148 428.434)" fill="#fff"/>
    <path id="Caminho_19" data-name="Caminho 19" d="M3332.216-409.49v.3a.957.957,0,0,0,.957.957.957.957,0,0,0,.957-.957v-.3a.957.957,0,0,0-.957-.957A.957.957,0,0,0,3332.216-409.49Z" transform="translate(-3318.861 418.126)" fill="#fff"/>
  </g>
</svg>
