<svg id="Sobremesas" xmlns="http://www.w3.org/2000/svg" width="40.553" height="53.819" viewBox="0 0 40.553 53.819">
  <path id="Caminho_5" data-name="Caminho 5" d="M2619.842-419.129a1,1,0,0,0-.774-.364h-38.542a1,1,0,0,0-.775.364,1,1,0,0,0-.214.829,24.767,24.767,0,0,0,7.125,13.361,19.606,19.606,0,0,0,9.693,5.061,2.263,2.263,0,0,0-.08.586v6.872h-7.459a2.265,2.265,0,0,0-2.263,2.263v1.676a2.265,2.265,0,0,0,2.263,2.263h22.293a2.265,2.265,0,0,0,2.263-2.263v-1.676a2.265,2.265,0,0,0-2.263-2.263h-7.92v-6.872a2.249,2.249,0,0,0-.074-.565,19.587,19.587,0,0,0,9.813-5.082,24.764,24.764,0,0,0,7.125-13.361A1,1,0,0,0,2619.842-419.129Zm-18.914,19.586a.252.252,0,0,1,.251.251v7.878a1.006,1.006,0,0,0,1.006,1.006h8.926a.252.252,0,0,1,.251.251v1.676a.252.252,0,0,1-.251.251h-22.293a.252.252,0,0,1-.251-.251v-1.676a.252.252,0,0,1,.251-.251h8.465a1.006,1.006,0,0,0,1.006-1.006v-7.878a.252.252,0,0,1,.251-.251Zm-1.132-2.011c-8.356,0-15.773-6.628-18.025-15.927h36.05C2615.57-408.183,2608.153-401.554,2599.8-401.554Z" transform="translate(-2579.521 440.036)" fill="#fff"/>
  <path id="Caminho_6" data-name="Caminho 6" d="M2606.29-486.771a6.283,6.283,0,0,1,6.337,5.529c-.014.194-.024.389-.024.586h2.066c0-.2-.01-.392-.024-.586a6.283,6.283,0,0,1,6.337-5.529,6.252,6.252,0,0,1,6.367,6.115h2.011a8.266,8.266,0,0,0-8.378-8.13c-.087,0-.173,0-.26.007a7.9,7.9,0,0,0,1.265-4.289,8.266,8.266,0,0,0-8.378-8.13,8.266,8.266,0,0,0-8.378,8.13,7.9,7.9,0,0,0,1.265,4.288c-.068,0-.136-.005-.2-.005a8.267,8.267,0,0,0-8.379,8.13h2.011A6.252,6.252,0,0,1,2606.29-486.771Zm7.113,1.827c.068,0,.136.005.2.005.087,0,.174,0,.26-.007-.081.126-.159.253-.233.384Q2613.525-484.757,2613.4-484.944Zm.2-14.24a6.252,6.252,0,0,1,6.367,6.115,6.252,6.252,0,0,1-6.367,6.115,6.252,6.252,0,0,1-6.367-6.115A6.252,6.252,0,0,1,2613.608-499.184Z" transform="translate(-2593.287 501.199)" fill="#fff"/>
</svg>
