<svg id="trash-alt" xmlns="http://www.w3.org/2000/svg" width="15.25" height="17.429" viewBox="0 0 15.25 17.429">
  <path id="Caminho_26" data-name="Caminho 26" d="M0,2.859V1.906a.815.815,0,0,1,.817-.817H4.63L4.95.453A.808.808,0,0,1,5.678,0H9.569A.816.816,0,0,1,10.3.453l.32.637h3.813a.815.815,0,0,1,.817.817v.953a.41.41,0,0,1-.408.408H.408A.41.41,0,0,1,0,2.859ZM14.161,4.766V15.795a1.634,1.634,0,0,1-1.634,1.634h-9.8a1.634,1.634,0,0,1-1.634-1.634V4.766A.41.41,0,0,1,1.5,4.357H13.752A.41.41,0,0,1,14.161,4.766ZM4.9,7.08a.545.545,0,1,0-1.089,0v7.625a.545.545,0,0,0,1.089,0Zm3.268,0a.545.545,0,1,0-1.089,0v7.625a.545.545,0,0,0,1.089,0Zm3.268,0a.545.545,0,1,0-1.089,0v7.625a.545.545,0,0,0,1.089,0Z" fill="#fff"/>
</svg>
